<?xml version="1.0" encoding="utf-8"?>
<!-- Generator: Adobe Illustrator 21.0.2, SVG Export Plug-In . SVG Version: 6.00 Build 0)  -->
<svg version="1.1" id="Layer_1" focusable="false" xmlns="http://www.w3.org/2000/svg" xmlns:xlink="http://www.w3.org/1999/xlink"
	 x="0px" y="0px" viewBox="0 0 445.9 445.9" style="enable-background:new 0 0 445.9 445.9;" xml:space="preserve">
<style type="text/css">
	.st0{fill:transparent;}
	.st1{opacity:0.4;fill:transparent;}
	.st2{fill:#FFFFFF;}
	.st3{opacity:0.3;}
	.st4{fill:#03CAF4;}
	.st5{opacity:0.5;}
	.st6{opacity:0.6;}
	.st7{fill:#898684;}
</style>
<circle class="st0" cx="223" cy="224" r="223"/>
<g>
	<path d="M143,133c17.7,0,32,14.3,32,32s-14.3,32-32,32s-32-14.3-32-32S125.3,133,143,133z"/>
	<path d="M319,325H127c-21.2,0-21.2-32,0-32h192C340.2,293,340.2,325,319,325z"/>
	<path d="M303,197c-17.7,0-32-14.3-32-32s14.3-32,32-32s32,14.3,32,32S320.7,197,303,197z"/>
</g>
</svg>
