<?xml version="1.0" encoding="utf-8"?>
<!-- Generator: Adobe Illustrator 21.0.2, SVG Export Plug-In . SVG Version: 6.00 Build 0)  -->
<svg version="1.1" id="Layer_1" focusable="false" xmlns="http://www.w3.org/2000/svg" xmlns:xlink="http://www.w3.org/1999/xlink"
	 x="0px" y="0px" viewBox="0 0 445.9 445.9" style="enable-background:new 0 0 445.9 445.9;" xml:space="preserve">
<style type="text/css">
	.st0{fill:#F9FE03;}
	.st1{opacity:0.4;fill:#F9FE03;}
	.st2{fill:#FFFFFF;}
	.st3{opacity:0.3;}
	.st4{fill:#03CAF4;}
	.st5{opacity:0.5;}
	.st6{opacity:0.6;}
	.st7{fill:#898684;}
</style>
<circle class="st0" cx="223" cy="223" r="223"/>
<circle class="st2" cx="132.7" cy="181.8" r="70.2"/>
<circle class="st2" cx="304.3" cy="181.8" r="70.2"/>
<circle cx="144" cy="156.2" r="42.1"/>
<circle cx="316.5" cy="157.2" r="42.1"/>
<rect x="62.5" y="90.3" class="st0" width="140.3" height="40.7"/>
<rect x="234.2" y="89.8" class="st0" width="140.3" height="40.7"/>
<path d="M174.2,371.6c-5.3,3.4-12.3,0.1-12.9-6.2c-2.9-29.1,29.2-58.6,59.8-66.9s73.3,0.9,85.5,27.4c2.6,5.8-1.8,12.2-8,11.9
	c-16.6-0.8-40,2.6-64.3,9.2C210,353.6,188.1,362.6,174.2,371.6L174.2,371.6z"/>
</svg>
