<?xml version="1.0" encoding="utf-8"?>
<!-- Generator: Adobe Illustrator 21.0.2, SVG Export Plug-In . SVG Version: 6.00 Build 0)  -->
<svg version="1.1" id="Layer_1" focusable="false" xmlns="http://www.w3.org/2000/svg" xmlns:xlink="http://www.w3.org/1999/xlink"
	 x="0px" y="0px" viewBox="0 0 445.9 445.9" style="enable-background:new 0 0 445.9 445.9;" xml:space="preserve">
<style type="text/css">
	.st0{fill:transparent;}
	.st1{opacity:0.4;fill:transparent;}
	.st2{fill:#FFFFFF;}
	.st3{opacity:0.3;}
	.st4{fill:#03CAF4;}
	.st5{opacity:0.5;}
	.st6{opacity:0.6;}
	.st7{fill:#898684;}
</style>
<circle class="st0" cx="223" cy="223" r="223"/>
<circle class="st2" cx="132.7" cy="181.8" r="70.2"/>
<circle class="st2" cx="304.3" cy="181.8" r="70.2"/>
<circle cx="146" cy="159.2" r="42.1"/>
<circle cx="314.5" cy="157.2" r="42.1"/>
<polygon class="st0" points="382.2,130.8 224.8,171.2 216,110 373.4,69.5 "/>
<polygon class="st0" points="55.2,130.8 212.6,171.2 221.3,110 63.9,69.5 "/>
<path d="M299.4,371.4H144.9c-17.2,0-31.3-14.1-31.3-31.3v-18.8c0-17.2,14.1-31.3,31.3-31.3h154.5c17.2,0,31.3,14.1,31.3,31.3v18.8
	C330.7,357.4,316.6,371.4,299.4,371.4z"/>
<path class="st7" d="M289.7,367.1h-136c-20,0-36.3-16.4-36.3-36.3v0c0-20,16.4-36.3,36.3-36.3h136c20,0,36.3,16.4,36.3,36.3v0
	C326,350.7,309.7,367.1,289.7,367.1z"/>
<path class="st2" d="M151.3,367.1h-6.9c-15.2,0-27.5-12.3-27.5-27.5v-6.9h34.3V367.1z"/>
<path class="st2" d="M151.3,328.7h-34.3v-6.9c0-15.2,12.3-27.5,27.5-27.5h6.9V328.7z"/>
<rect x="154.9" y="332.7" class="st2" width="41.2" height="34.3"/>
<rect x="154.9" y="294.4" class="st2" width="41.2" height="34.3"/>
<rect x="200.6" y="332.7" class="st2" width="41.2" height="34.3"/>
<rect x="200.6" y="294.4" class="st2" width="41.2" height="34.3"/>
<rect x="246.3" y="332.7" class="st2" width="41.2" height="34.3"/>
<rect x="246.3" y="294.4" class="st2" width="41.2" height="34.3"/>
<path class="st2" d="M326,339.6c0,15.2-12.3,27.5-27.5,27.5h-6.9v-34.3H326V339.6z"/>
<path class="st2" d="M326,328.7h-34.3v-34.3h6.9c15.2,0,27.5,12.3,27.5,27.5V328.7z"/>
</svg>
