<?xml version="1.0" encoding="utf-8"?>
<!-- Generator: Adobe Illustrator 21.0.2, SVG Export Plug-In . SVG Version: 6.00 Build 0)  -->
<svg version="1.1" id="Layer_1" focusable="false" xmlns="http://www.w3.org/2000/svg" xmlns:xlink="http://www.w3.org/1999/xlink"
	 x="0px" y="0px" viewBox="0 0 445.9 445.9" style="enable-background:new 0 0 445.9 445.9;" xml:space="preserve">
<style type="text/css">
	.st0{fill:transparent;}
	.st1{opacity:0.4;fill:transparent;}
	.st2{fill:#FFFFFF;}
	.st3{opacity:0.3;}
	.st4{fill:#03CAF4;}
	.st5{opacity:0.5;}
	.st6{opacity:0.6;}
	.st7{fill:#898684;}
</style>
<circle class="st0" cx="223" cy="224" r="223"/>
<g>
	<path d="M357.1,189.3c-32.9,17.4-81.8,27.3-134.1,27.3s-101.2-9.9-134.1-27.3v0c-12.4-6.7-24.7,10.8-22.5,32.2
		C76.5,320.3,157,389.2,223,389.2s146.6-68.9,156.6-167.7C381.7,200.1,369.4,182.6,357.1,189.3z"/>
	<path class="st2" d="M227.6,260.8c44,0,97.8-14,104.5-43.4c0.5-3.9,1-8.9,0.9-13.2c-30.6,10.9-69.3,16.9-110,16.9
		c-36.6,0-71.6-4.9-100.6-13.8c0.1,2.9,0.4,6.2,0.7,10.1C129.9,246.8,183.5,260.8,227.6,260.8z"/>
</g>
<path class="st4" d="M331.6,166c2.8,18.9,10,61.5,22.4,73.9c16,16.1,42.4,15.8,58.8-0.6c16.4-16.4,16.7-42.7,0.6-58.7
	c-12.4-12.4-55-19.8-73.9-22.4C334.9,157.4,331,161.4,331.6,166z"/>
<path class="st4" d="M109.1,158.1c-18.9,2.7-61.5,10-73.9,22.4c-16.1,16.1-15.8,42.3,0.6,58.7s42.8,16.7,58.8,0.6
	c12.4-12.4,19.7-55,22.4-73.9C117.7,161.4,113.8,157.4,109.1,158.1z"/>
<path d="M126.6,153.5c-2.6,1.8-6.2,0.2-6.5-3c-1.7-14.6,14.1-29.7,29.4-34.1c15.3-4.5,36.8-0.3,43.1,12.9c1.4,2.9-0.8,6.1-3.9,6
	c-8.3-0.2-20.1,1.7-32.2,5.3C144.4,144.1,133.5,148.8,126.6,153.5L126.6,153.5z"/>
<path d="M120.1,124.3c-2,2.1-6.2,2.4-6.2-0.3c0-7.9,8.5-25.2,21.2-34.1c8.7-6.1,27.9-7.5,38.2-3.4c4.7,2.2,2.9,5.1-1.7,5.9
	c-10.9,1.4-17.1,0.7-27.2,7S125.4,118.8,120.1,124.3L120.1,124.3z"/>
<path d="M316.5,153.5c-6.9-4.7-17.8-9.4-29.9-12.9s-23.8-5.5-32.2-5.3c-3.1,0.1-5.3-3.2-3.9-6c6.4-13.2,27.9-17.4,43.1-12.9
	c15.3,4.5,31.1,19.6,29.4,34.1C322.7,153.7,319.1,155.3,316.5,153.5L316.5,153.5z"/>
<path d="M323,124.3c-5.3-5.5-14.3-18.7-24.4-24.9s-16.2-5.6-27.2-7c-4.5-0.8-6.3-3.7-1.7-5.9c10.3-4.1,29.5-2.7,38.2,3.4
	c12.7,8.9,21.2,26.2,21.2,34.1C329.2,126.7,325,126.4,323,124.3L323,124.3z"/>
</svg>
