<?xml version="1.0" encoding="utf-8"?>
<!-- Generator: Adobe Illustrator 21.0.2, SVG Export Plug-In . SVG Version: 6.00 Build 0)  -->
<svg version="1.1" id="Layer_1" focusable="false" xmlns="http://www.w3.org/2000/svg" xmlns:xlink="http://www.w3.org/1999/xlink"
	 x="0px" y="0px" viewBox="0 0 496 512" style="enable-background:new 0 0 496 512;" xml:space="preserve">
<style type="text/css">
	.st0{fill:#F9FE03;}
	.st1{fill:#FFFFFF;}
</style>
<circle class="st0" cx="248" cy="255.2" r="240"/>
<circle class="st1" cx="160.3" cy="227.5" r="51.3"/>
<circle class="st1" cx="337.3" cy="223.4" r="51.3"/>
<path d="M248,8C111,8,0,119,0,256s111,248,248,248s248-111,248-248S385,8,248,8z M248,456c-110.3,0-200-89.7-200-200
	S137.7,56,248,56s200,89.7,200,200S358.3,456,248,456z M336,152c-39.8,0-72,32.2-72,72s32.2,72,72,72s72-32.2,72-72
	S375.8,152,336,152z M336,264c-22.1,0-40-17.9-40-40c0-13.6,7.3-25.1,17.7-32.3c-1,2.6-1.7,5.3-1.7,8.3c0,13.3,10.7,24,24,24
	s24-10.7,24-24c0-2.9-0.7-5.7-1.7-8.3c10.4,7.2,17.7,18.7,17.7,32.3C376,246.1,358.1,264,336,264z M232,224c0-39.8-32.2-72-72-72
	s-72,32.2-72,72s32.2,72,72,72S232,263.8,232,224z M120,224c0-13.6,7.3-25.1,17.7-32.3c-1,2.6-1.7,5.3-1.7,8.3c0,13.3,10.7,24,24,24
	s24-10.7,24-24c0-2.9-0.7-5.7-1.7-8.3c10.4,7.2,17.7,18.7,17.7,32.3c0,22.1-17.9,40-40,40S120,246.1,120,224z M312,352H184
	c-13.2,0-24,10.8-24,24s10.8,24,24,24h128c13.2,0,24-10.8,24-24S325.2,352,312,352z"/>
</svg>
